<?xml version="1.0" encoding="UTF-8" ?>
<svg version="1.1" width="1040" height="1040" xmlns="http://www.w3.org/2000/svg" shape-rendering="crispEdges">
<rect x="510" y="70" width="20" height="40" fill="#846F00" />
<rect x="500" y="100" width="10" height="40" fill="#846F00" />
<rect x="530" y="100" width="10" height="40" fill="#846F00" />
<rect x="510" y="110" width="10" height="400" fill="#EDC800" />
<rect x="520" y="110" width="10" height="400" fill="#FFF3AF" />
<rect x="490" y="130" width="10" height="20" fill="#846F00" />
<rect x="540" y="130" width="10" height="20" fill="#846F00" />
<rect x="500" y="140" width="10" height="360" fill="#EDC800" />
<rect x="530" y="140" width="10" height="360" fill="#FFF3AF" />
<rect x="480" y="150" width="10" height="20" fill="#846F00" />
<rect x="490" y="150" width="10" height="340" fill="#EDC800" />
<rect x="540" y="150" width="10" height="340" fill="#FFF3AF" />
<rect x="550" y="150" width="10" height="20" fill="#846F00" />
<rect x="470" y="170" width="10" height="20" fill="#846F00" />
<rect x="480" y="170" width="10" height="310" fill="#EDC800" />
<rect x="550" y="170" width="10" height="310" fill="#FFF3AF" />
<rect x="560" y="170" width="10" height="20" fill="#846F00" />
<rect x="460" y="190" width="10" height="20" fill="#846F00" />
<rect x="470" y="190" width="10" height="280" fill="#EDC800" />
<rect x="560" y="190" width="10" height="280" fill="#FFF3AF" />
<rect x="570" y="190" width="10" height="20" fill="#846F00" />
<rect x="450" y="210" width="10" height="30" fill="#846F00" />
<rect x="460" y="210" width="10" height="250" fill="#EDC800" />
<rect x="570" y="210" width="10" height="250" fill="#FFF3AF" />
<rect x="580" y="210" width="10" height="30" fill="#846F00" />
<rect x="220" y="220" width="20" height="20" fill="#846F00" />
<rect x="800" y="220" width="20" height="20" fill="#846F00" />
<rect x="240" y="230" width="40" height="10" fill="#846F00" />
<rect x="760" y="230" width="40" height="10" fill="#846F00" />
<rect x="230" y="240" width="10" height="40" fill="#846F00" />
<rect x="240" y="240" width="10" height="20" fill="#EDC800" />
<rect x="250" y="240" width="10" height="10" fill="#FFD700" />
<rect x="260" y="240" width="60" height="10" fill="#846F00" />
<rect x="440" y="240" width="10" height="20" fill="#846F00" />
<rect x="450" y="240" width="10" height="210" fill="#EDC800" />
<rect x="580" y="240" width="10" height="210" fill="#FFF3AF" />
<rect x="590" y="240" width="10" height="20" fill="#846F00" />
<rect x="720" y="240" width="50" height="10" fill="#846F00" />
<rect x="770" y="240" width="20" height="20" fill="#FFEE91" />
<rect x="790" y="240" width="10" height="40" fill="#EDC800" />
<rect x="800" y="240" width="10" height="40" fill="#846F00" />
<rect x="250" y="250" width="10" height="70" fill="#EDC800" />
<rect x="260" y="250" width="60" height="10" fill="#FFD700" />
<rect x="320" y="250" width="40" height="10" fill="#846F00" />
<rect x="680" y="250" width="40" height="10" fill="#846F00" />
<rect x="720" y="250" width="50" height="30" fill="#FFEE91" />
<rect x="240" y="260" width="10" height="60" fill="#846F00" />
<rect x="260" y="260" width="10" height="100" fill="#EDC800" />
<rect x="270" y="260" width="90" height="10" fill="#FFD700" />
<rect x="360" y="260" width="40" height="10" fill="#846F00" />
<rect x="430" y="260" width="10" height="20" fill="#846F00" />
<rect x="440" y="260" width="10" height="180" fill="#EDC800" />
<rect x="590" y="260" width="10" height="180" fill="#FFF3AF" />
<rect x="600" y="260" width="10" height="20" fill="#846F00" />
<rect x="640" y="260" width="40" height="10" fill="#846F00" />
<rect x="680" y="260" width="40" height="70" fill="#FFEE91" />
<rect x="770" y="260" width="10" height="10" fill="#FFEE91" />
<rect x="780" y="260" width="10" height="60" fill="#EDC800" />
<rect x="270" y="270" width="10" height="130" fill="#EDC800" />
<rect x="280" y="270" width="120" height="10" fill="#FFD700" />
<rect x="400" y="270" width="30" height="10" fill="#846F00" />
<rect x="610" y="270" width="30" height="10" fill="#846F00" />
<rect x="640" y="270" width="40" height="70" fill="#FFEE91" />
<rect x="770" y="270" width="10" height="90" fill="#EDC800" />
<rect x="280" y="280" width="10" height="140" fill="#EDC800" />
<rect x="290" y="280" width="130" height="10" fill="#FFD700" />
<rect x="420" y="280" width="10" height="20" fill="#846F00" />
<rect x="430" y="280" width="10" height="150" fill="#EDC800" />
<rect x="600" y="280" width="10" height="150" fill="#FFF3AF" />
<rect x="610" y="280" width="10" height="20" fill="#846F00" />
<rect x="620" y="280" width="20" height="20" fill="#FFEE91" />
<rect x="720" y="280" width="40" height="10" fill="#FFEE91" />
<rect x="760" y="280" width="10" height="120" fill="#EDC800" />
<rect x="790" y="280" width="10" height="40" fill="#846F00" />
<rect x="290" y="290" width="10" height="120" fill="#EDC800" />
<rect x="300" y="290" width="120" height="10" fill="#FFD700" />
<rect x="720" y="290" width="30" height="10" fill="#FFEE91" />
<rect x="750" y="290" width="10" height="130" fill="#EDC800" />
<rect x="300" y="300" width="10" height="110" fill="#EDC800" />
<rect x="310" y="300" width="100" height="10" fill="#FFD700" />
<rect x="410" y="300" width="10" height="30" fill="#846F00" />
<rect x="420" y="300" width="10" height="120" fill="#EDC800" />
<rect x="610" y="300" width="10" height="120" fill="#FFF3AF" />
<rect x="620" y="300" width="10" height="30" fill="#846F00" />
<rect x="630" y="300" width="10" height="20" fill="#FFEE91" />
<rect x="720" y="300" width="20" height="10" fill="#FFEE91" />
<rect x="740" y="300" width="10" height="110" fill="#EDC800" />
<rect x="310" y="310" width="10" height="100" fill="#EDC800" />
<rect x="320" y="310" width="90" height="10" fill="#FFD700" />
<rect x="720" y="310" width="10" height="10" fill="#FFEE91" />
<rect x="730" y="310" width="10" height="100" fill="#EDC800" />
<rect x="250" y="320" width="10" height="40" fill="#846F00" />
<rect x="320" y="320" width="10" height="80" fill="#EDC800" />
<rect x="330" y="320" width="70" height="10" fill="#FFD700" />
<rect x="400" y="320" width="10" height="20" fill="#846F00" />
<rect x="630" y="320" width="10" height="20" fill="#846F00" />
<rect x="720" y="320" width="10" height="90" fill="#EDC800" />
<rect x="780" y="320" width="10" height="40" fill="#846F00" />
<rect x="330" y="330" width="10" height="70" fill="#EDC800" />
<rect x="340" y="330" width="60" height="10" fill="#FFD700" />
<rect x="410" y="330" width="10" height="80" fill="#EDC800" />
<rect x="620" y="330" width="10" height="80" fill="#FFF3AF" />
<rect x="680" y="330" width="30" height="10" fill="#FFEE91" />
<rect x="710" y="330" width="10" height="70" fill="#EDC800" />
<rect x="340" y="340" width="10" height="50" fill="#EDC800" />
<rect x="350" y="340" width="40" height="10" fill="#FFD700" />
<rect x="390" y="340" width="10" height="20" fill="#846F00" />
<rect x="400" y="340" width="10" height="60" fill="#EDC800" />
<rect x="630" y="340" width="10" height="60" fill="#FFF3AF" />
<rect x="640" y="340" width="10" height="20" fill="#846F00" />
<rect x="650" y="340" width="50" height="10" fill="#FFEE91" />
<rect x="700" y="340" width="10" height="60" fill="#EDC800" />
<rect x="350" y="350" width="10" height="40" fill="#EDC800" />
<rect x="360" y="350" width="30" height="10" fill="#FFD700" />
<rect x="650" y="350" width="40" height="10" fill="#FFEE91" />
<rect x="690" y="350" width="10" height="40" fill="#EDC800" />
<rect x="260" y="360" width="10" height="40" fill="#846F00" />
<rect x="360" y="360" width="10" height="20" fill="#EDC800" />
<rect x="370" y="360" width="10" height="10" fill="#FFD700" />
<rect x="380" y="360" width="10" height="20" fill="#846F00" />
<rect x="390" y="360" width="10" height="30" fill="#EDC800" />
<rect x="640" y="360" width="10" height="30" fill="#FFF3AF" />
<rect x="650" y="360" width="10" height="20" fill="#846F00" />
<rect x="660" y="360" width="20" height="10" fill="#FFEE91" />
<rect x="680" y="360" width="10" height="30" fill="#EDC800" />
<rect x="770" y="360" width="10" height="40" fill="#846F00" />
<rect x="370" y="370" width="10" height="10" fill="#EDC800" />
<rect x="660" y="370" width="10" height="10" fill="#FFEE91" />
<rect x="670" y="370" width="10" height="10" fill="#EDC800" />
<rect x="360" y="380" width="20" height="10" fill="#846F00" />
<rect x="380" y="380" width="10" height="140" fill="#FFD700" />
<rect x="650" y="380" width="10" height="140" fill="#FFEE91" />
<rect x="660" y="380" width="20" height="10" fill="#846F00" />
<rect x="340" y="390" width="20" height="10" fill="#846F00" />
<rect x="360" y="390" width="20" height="130" fill="#FFD700" />
<rect x="390" y="390" width="10" height="130" fill="#FFD700" />
<rect x="640" y="390" width="10" height="130" fill="#FFEE91" />
<rect x="660" y="390" width="20" height="130" fill="#FFEE91" />
<rect x="680" y="390" width="20" height="10" fill="#846F00" />
<rect x="270" y="400" width="10" height="30" fill="#846F00" />
<rect x="320" y="400" width="20" height="10" fill="#846F00" />
<rect x="340" y="400" width="20" height="120" fill="#FFD700" />
<rect x="400" y="400" width="10" height="120" fill="#FFD700" />
<rect x="630" y="400" width="10" height="120" fill="#FFEE91" />
<rect x="680" y="400" width="20" height="120" fill="#FFEE91" />
<rect x="700" y="400" width="20" height="10" fill="#846F00" />
<rect x="760" y="400" width="10" height="30" fill="#846F00" />
<rect x="290" y="410" width="40" height="10" fill="#846F00" />
<rect x="330" y="410" width="10" height="110" fill="#FFD700" />
<rect x="410" y="410" width="10" height="110" fill="#FFD700" />
<rect x="620" y="410" width="10" height="110" fill="#FFEE91" />
<rect x="700" y="410" width="10" height="110" fill="#FFEE91" />
<rect x="710" y="410" width="40" height="10" fill="#846F00" />
<rect x="280" y="420" width="10" height="10" fill="#846F00" />
<rect x="290" y="420" width="40" height="100" fill="#FFD700" />
<rect x="420" y="420" width="10" height="100" fill="#FFD700" />
<rect x="610" y="420" width="10" height="100" fill="#FFEE91" />
<rect x="710" y="420" width="40" height="100" fill="#FFEE91" />
<rect x="750" y="420" width="10" height="10" fill="#846F00" />
<rect x="240" y="430" width="30" height="10" fill="#846F00" />
<rect x="270" y="430" width="20" height="90" fill="#FFD700" />
<rect x="430" y="430" width="10" height="90" fill="#FFD700" />
<rect x="600" y="430" width="10" height="90" fill="#FFEE91" />
<rect x="750" y="430" width="20" height="90" fill="#FFEE91" />
<rect x="770" y="430" width="30" height="10" fill="#846F00" />
<rect x="220" y="440" width="20" height="10" fill="#846F00" />
<rect x="240" y="440" width="30" height="80" fill="#FFD700" />
<rect x="440" y="440" width="10" height="80" fill="#FFD700" />
<rect x="590" y="440" width="10" height="80" fill="#FFEE91" />
<rect x="770" y="440" width="30" height="80" fill="#FFEE91" />
<rect x="800" y="440" width="20" height="10" fill="#846F00" />
<rect x="200" y="450" width="20" height="10" fill="#846F00" />
<rect x="220" y="450" width="20" height="70" fill="#FFD700" />
<rect x="450" y="450" width="10" height="70" fill="#FFD700" />
<rect x="580" y="450" width="10" height="70" fill="#FFEE91" />
<rect x="800" y="450" width="20" height="70" fill="#FFEE91" />
<rect x="820" y="450" width="20" height="10" fill="#846F00" />
<rect x="170" y="460" width="30" height="10" fill="#846F00" />
<rect x="200" y="460" width="20" height="60" fill="#FFD700" />
<rect x="460" y="460" width="10" height="60" fill="#FFD700" />
<rect x="570" y="460" width="10" height="60" fill="#FFEE91" />
<rect x="820" y="460" width="20" height="60" fill="#FFEE91" />
<rect x="840" y="460" width="30" height="10" fill="#846F00" />
<rect x="150" y="470" width="20" height="10" fill="#846F00" />
<rect x="170" y="470" width="30" height="50" fill="#FFD700" />
<rect x="470" y="470" width="10" height="50" fill="#FFD700" />
<rect x="560" y="470" width="10" height="50" fill="#FFEE91" />
<rect x="840" y="470" width="30" height="50" fill="#FFEE91" />
<rect x="870" y="470" width="20" height="10" fill="#846F00" />
<rect x="120" y="480" width="30" height="10" fill="#846F00" />
<rect x="150" y="480" width="20" height="40" fill="#FFD700" />
<rect x="480" y="480" width="10" height="40" fill="#FFD700" />
<rect x="550" y="480" width="10" height="40" fill="#FFEE91" />
<rect x="870" y="480" width="20" height="40" fill="#FFEE91" />
<rect x="890" y="480" width="30" height="10" fill="#846F00" />
<rect x="100" y="490" width="30" height="10" fill="#846F00" />
<rect x="130" y="490" width="20" height="30" fill="#FFD700" />
<rect x="490" y="490" width="10" height="30" fill="#FFD700" />
<rect x="540" y="490" width="10" height="30" fill="#FFEE91" />
<rect x="890" y="490" width="20" height="30" fill="#FFEE91" />
<rect x="910" y="490" width="30" height="10" fill="#846F00" />
<rect x="80" y="500" width="40" height="10" fill="#846F00" />
<rect x="120" y="500" width="10" height="20" fill="#FFD700" />
<rect x="500" y="500" width="10" height="20" fill="#FFD700" />
<rect x="530" y="500" width="10" height="20" fill="#FFEE91" />
<rect x="910" y="500" width="10" height="20" fill="#FFEE91" />
<rect x="920" y="500" width="40" height="10" fill="#846F00" />
<rect x="50" y="510" width="40" height="20" fill="#846F00" />
<rect x="90" y="510" width="30" height="10" fill="#FFD700" />
<rect x="510" y="510" width="20" height="20" fill="#FFF7C7" />
<rect x="920" y="510" width="30" height="10" fill="#FFEE91" />
<rect x="950" y="510" width="40" height="20" fill="#846F00" />
<rect x="90" y="520" width="420" height="10" fill="#EDC800" />
<rect x="530" y="520" width="420" height="10" fill="#EDC800" />
<rect x="80" y="530" width="40" height="10" fill="#846F00" />
<rect x="120" y="530" width="380" height="10" fill="#EDC800" />
<rect x="500" y="530" width="20" height="370" fill="#C6A800" />
<rect x="520" y="530" width="10" height="400" fill="#FFD700" />
<rect x="530" y="530" width="390" height="10" fill="#EDC800" />
<rect x="920" y="530" width="40" height="10" fill="#846F00" />
<rect x="100" y="540" width="30" height="10" fill="#846F00" />
<rect x="130" y="540" width="360" height="10" fill="#EDC800" />
<rect x="490" y="540" width="10" height="350" fill="#C6A800" />
<rect x="530" y="540" width="10" height="360" fill="#FFD700" />
<rect x="540" y="540" width="380" height="10" fill="#EDC800" />
<rect x="920" y="540" width="20" height="10" fill="#846F00" />
<rect x="120" y="550" width="30" height="10" fill="#846F00" />
<rect x="150" y="550" width="330" height="10" fill="#EDC800" />
<rect x="480" y="550" width="10" height="320" fill="#C6A800" />
<rect x="540" y="550" width="10" height="340" fill="#FFD700" />
<rect x="550" y="550" width="340" height="10" fill="#EDC800" />
<rect x="890" y="550" width="30" height="10" fill="#846F00" />
<rect x="150" y="560" width="20" height="10" fill="#846F00" />
<rect x="170" y="560" width="300" height="10" fill="#EDC800" />
<rect x="470" y="560" width="10" height="290" fill="#C6A800" />
<rect x="550" y="560" width="10" height="310" fill="#FFD700" />
<rect x="560" y="560" width="310" height="10" fill="#EDC800" />
<rect x="870" y="560" width="20" height="10" fill="#846F00" />
<rect x="170" y="570" width="30" height="10" fill="#846F00" />
<rect x="200" y="570" width="260" height="10" fill="#EDC800" />
<rect x="460" y="570" width="10" height="260" fill="#C6A800" />
<rect x="560" y="570" width="10" height="280" fill="#FFD700" />
<rect x="570" y="570" width="270" height="10" fill="#EDC800" />
<rect x="840" y="570" width="30" height="10" fill="#846F00" />
<rect x="200" y="580" width="20" height="10" fill="#846F00" />
<rect x="220" y="580" width="230" height="10" fill="#EDC800" />
<rect x="450" y="580" width="10" height="220" fill="#C6A800" />
<rect x="570" y="580" width="10" height="250" fill="#FFD700" />
<rect x="580" y="580" width="240" height="10" fill="#EDC800" />
<rect x="820" y="580" width="20" height="10" fill="#846F00" />
<rect x="220" y="590" width="20" height="10" fill="#846F00" />
<rect x="240" y="590" width="200" height="10" fill="#EDC800" />
<rect x="440" y="590" width="10" height="190" fill="#C6A800" />
<rect x="580" y="590" width="10" height="210" fill="#FFD700" />
<rect x="590" y="590" width="210" height="10" fill="#EDC800" />
<rect x="800" y="590" width="20" height="10" fill="#846F00" />
<rect x="240" y="600" width="30" height="10" fill="#846F00" />
<rect x="270" y="600" width="160" height="10" fill="#EDC800" />
<rect x="430" y="600" width="10" height="160" fill="#C6A800" />
<rect x="590" y="600" width="10" height="180" fill="#FFD700" />
<rect x="600" y="600" width="170" height="10" fill="#EDC800" />
<rect x="770" y="600" width="30" height="10" fill="#846F00" />
<rect x="270" y="610" width="20" height="10" fill="#846F00" />
<rect x="290" y="610" width="130" height="10" fill="#EDC800" />
<rect x="420" y="610" width="10" height="130" fill="#C6A800" />
<rect x="600" y="610" width="10" height="150" fill="#FFD700" />
<rect x="610" y="610" width="140" height="10" fill="#EDC800" />
<rect x="750" y="610" width="20" height="10" fill="#846F00" />
<rect x="270" y="620" width="10" height="20" fill="#846F00" />
<rect x="280" y="620" width="10" height="130" fill="#EDC800" />
<rect x="290" y="620" width="40" height="10" fill="#846F00" />
<rect x="330" y="620" width="80" height="10" fill="#EDC800" />
<rect x="410" y="620" width="10" height="90" fill="#C6A800" />
<rect x="610" y="620" width="10" height="120" fill="#FFD700" />
<rect x="620" y="620" width="90" height="10" fill="#EDC800" />
<rect x="710" y="620" width="40" height="10" fill="#846F00" />
<rect x="750" y="620" width="10" height="130" fill="#FFD700" />
<rect x="760" y="620" width="10" height="20" fill="#846F00" />
<rect x="290" y="630" width="30" height="90" fill="#EDC800" />
<rect x="320" y="630" width="20" height="10" fill="#846F00" />
<rect x="340" y="630" width="60" height="10" fill="#EDC800" />
<rect x="400" y="630" width="10" height="70" fill="#C6A800" />
<rect x="620" y="630" width="10" height="80" fill="#FFD700" />
<rect x="630" y="630" width="70" height="10" fill="#EDC800" />
<rect x="700" y="630" width="20" height="10" fill="#846F00" />
<rect x="720" y="630" width="30" height="90" fill="#FFD700" />
<rect x="260" y="640" width="10" height="40" fill="#846F00" />
<rect x="270" y="640" width="10" height="120" fill="#EDC800" />
<rect x="320" y="640" width="20" height="60" fill="#EDC800" />
<rect x="340" y="640" width="20" height="10" fill="#846F00" />
<rect x="360" y="640" width="30" height="10" fill="#EDC800" />
<rect x="390" y="640" width="10" height="40" fill="#C6A800" />
<rect x="630" y="640" width="10" height="60" fill="#FFD700" />
<rect x="640" y="640" width="40" height="10" fill="#EDC800" />
<rect x="680" y="640" width="20" height="10" fill="#846F00" />
<rect x="700" y="640" width="20" height="60" fill="#FFD700" />
<rect x="760" y="640" width="10" height="120" fill="#FFD700" />
<rect x="770" y="640" width="10" height="40" fill="#846F00" />
<rect x="340" y="650" width="20" height="30" fill="#EDC800" />
<rect x="360" y="650" width="20" height="10" fill="#846F00" />
<rect x="380" y="650" width="10" height="10" fill="#C6A800" />
<rect x="640" y="650" width="10" height="30" fill="#FFD700" />
<rect x="650" y="650" width="10" height="10" fill="#EDC800" />
<rect x="660" y="650" width="20" height="10" fill="#846F00" />
<rect x="680" y="650" width="20" height="30" fill="#FFD700" />
<rect x="360" y="660" width="10" height="10" fill="#EDC800" />
<rect x="370" y="660" width="10" height="110" fill="#FFD700" />
<rect x="380" y="660" width="10" height="20" fill="#846F00" />
<rect x="650" y="660" width="10" height="20" fill="#846F00" />
<rect x="660" y="660" width="10" height="110" fill="#EDC800" />
<rect x="670" y="660" width="10" height="10" fill="#FFD700" />
<rect x="360" y="670" width="10" height="100" fill="#FFD700" />
<rect x="670" y="670" width="10" height="100" fill="#EDC800" />
<rect x="250" y="680" width="10" height="40" fill="#846F00" />
<rect x="260" y="680" width="10" height="90" fill="#EDC800" />
<rect x="340" y="680" width="10" height="10" fill="#EDC800" />
<rect x="350" y="680" width="10" height="100" fill="#FFD700" />
<rect x="380" y="680" width="10" height="90" fill="#FFD700" />
<rect x="390" y="680" width="10" height="20" fill="#846F00" />
<rect x="640" y="680" width="10" height="20" fill="#846F00" />
<rect x="650" y="680" width="10" height="90" fill="#EDC800" />
<rect x="680" y="680" width="10" height="100" fill="#EDC800" />
<rect x="690" y="680" width="10" height="10" fill="#FFD700" />
<rect x="770" y="680" width="10" height="90" fill="#FFD700" />
<rect x="780" y="680" width="10" height="40" fill="#846F00" />
<rect x="340" y="690" width="10" height="90" fill="#FFD700" />
<rect x="690" y="690" width="10" height="90" fill="#EDC800" />
<rect x="320" y="700" width="10" height="10" fill="#EDC800" />
<rect x="330" y="700" width="10" height="80" fill="#FFD700" />
<rect x="390" y="700" width="10" height="70" fill="#FFD700" />
<rect x="400" y="700" width="10" height="20" fill="#846F00" />
<rect x="630" y="700" width="10" height="20" fill="#846F00" />
<rect x="640" y="700" width="10" height="70" fill="#EDC800" />
<rect x="700" y="700" width="10" height="80" fill="#EDC800" />
<rect x="710" y="700" width="10" height="10" fill="#FFD700" />
<rect x="320" y="710" width="10" height="70" fill="#FFD700" />
<rect x="410" y="710" width="10" height="30" fill="#846F00" />
<rect x="620" y="710" width="10" height="30" fill="#846F00" />
<rect x="710" y="710" width="10" height="70" fill="#EDC800" />
<rect x="240" y="720" width="10" height="40" fill="#846F00" />
<rect x="250" y="720" width="10" height="60" fill="#EDC800" />
<rect x="290" y="720" width="20" height="10" fill="#EDC800" />
<rect x="310" y="720" width="10" height="70" fill="#FFD700" />
<rect x="400" y="720" width="10" height="40" fill="#FFD700" />
<rect x="630" y="720" width="10" height="40" fill="#EDC800" />
<rect x="720" y="720" width="10" height="70" fill="#EDC800" />
<rect x="730" y="720" width="20" height="10" fill="#FFD700" />
<rect x="780" y="720" width="10" height="60" fill="#FFD700" />
<rect x="790" y="720" width="10" height="40" fill="#846F00" />
<rect x="290" y="730" width="10" height="10" fill="#EDC800" />
<rect x="300" y="730" width="10" height="60" fill="#FFD700" />
<rect x="730" y="730" width="10" height="60" fill="#EDC800" />
<rect x="740" y="730" width="10" height="10" fill="#FFD700" />
<rect x="290" y="740" width="10" height="50" fill="#FFD700" />
<rect x="410" y="740" width="10" height="20" fill="#FFD700" />
<rect x="420" y="740" width="10" height="30" fill="#846F00" />
<rect x="610" y="740" width="10" height="30" fill="#846F00" />
<rect x="620" y="740" width="10" height="20" fill="#EDC800" />
<rect x="740" y="740" width="10" height="50" fill="#EDC800" />
<rect x="280" y="750" width="10" height="40" fill="#FFD700" />
<rect x="750" y="750" width="10" height="40" fill="#EDC800" />
<rect x="230" y="760" width="10" height="60" fill="#846F00" />
<rect x="240" y="760" width="10" height="30" fill="#EDC800" />
<rect x="270" y="760" width="10" height="30" fill="#FFD700" />
<rect x="400" y="760" width="20" height="10" fill="#846F00" />
<rect x="430" y="760" width="10" height="20" fill="#846F00" />
<rect x="600" y="760" width="10" height="20" fill="#846F00" />
<rect x="620" y="760" width="20" height="10" fill="#846F00" />
<rect x="760" y="760" width="10" height="30" fill="#EDC800" />
<rect x="790" y="760" width="10" height="30" fill="#FFD700" />
<rect x="800" y="760" width="10" height="60" fill="#846F00" />
<rect x="260" y="770" width="10" height="20" fill="#FFD700" />
<rect x="360" y="770" width="40" height="10" fill="#846F00" />
<rect x="640" y="770" width="40" height="10" fill="#846F00" />
<rect x="770" y="770" width="10" height="20" fill="#EDC800" />
<rect x="250" y="780" width="10" height="20" fill="#FFD700" />
<rect x="320" y="780" width="40" height="10" fill="#846F00" />
<rect x="440" y="780" width="10" height="20" fill="#846F00" />
<rect x="590" y="780" width="10" height="20" fill="#846F00" />
<rect x="680" y="780" width="40" height="10" fill="#846F00" />
<rect x="780" y="780" width="10" height="20" fill="#EDC800" />
<rect x="240" y="790" width="10" height="10" fill="#FFD700" />
<rect x="260" y="790" width="60" height="10" fill="#846F00" />
<rect x="720" y="790" width="60" height="10" fill="#846F00" />
<rect x="790" y="790" width="10" height="10" fill="#EDC800" />
<rect x="220" y="800" width="10" height="20" fill="#846F00" />
<rect x="240" y="800" width="40" height="10" fill="#846F00" />
<rect x="450" y="800" width="10" height="30" fill="#846F00" />
<rect x="580" y="800" width="10" height="30" fill="#846F00" />
<rect x="760" y="800" width="40" height="10" fill="#846F00" />
<rect x="810" y="800" width="10" height="20" fill="#846F00" />
<rect x="460" y="830" width="10" height="20" fill="#846F00" />
<rect x="570" y="830" width="10" height="20" fill="#846F00" />
<rect x="470" y="850" width="10" height="20" fill="#846F00" />
<rect x="560" y="850" width="10" height="20" fill="#846F00" />
<rect x="480" y="870" width="10" height="20" fill="#846F00" />
<rect x="550" y="870" width="10" height="20" fill="#846F00" />
<rect x="490" y="890" width="10" height="20" fill="#846F00" />
<rect x="540" y="890" width="10" height="20" fill="#846F00" />
<rect x="500" y="900" width="10" height="40" fill="#846F00" />
<rect x="510" y="900" width="10" height="30" fill="#C6A800" />
<rect x="530" y="900" width="10" height="40" fill="#846F00" />
<rect x="510" y="930" width="20" height="40" fill="#846F00" />
</svg>